HIERARCHY
ROOT root
{
	OFFSET	0	13.1	24.9
	CHANNELS 6  Xposition Yposition Zposition Xrotation Yrotation Zrotation
	JOINT spine_1
	{
		OFFSET	0	9.99999	0
		CHANNELS 3  Xrotation Yrotation Zrotation
		JOINT spine_2
		{
			OFFSET	0	112	-10
			CHANNELS 3  Xrotation Yrotation Zrotation
			JOINT spine_3
			{
				OFFSET	0	206.5	19.3
				CHANNELS 3  Xrotation Yrotation Zrotation
				JOINT spine_4
				{
					OFFSET	0	110.4	14.6
					CHANNELS 3  Xrotation Yrotation Zrotation
					JOINT neck_1
					{
						OFFSET	0	71.8	-50.3
						CHANNELS 3  Xrotation Yrotation Zrotation
						JOINT neck_2
						{
							OFFSET	0	86.2	-25.8
							CHANNELS 3  Xrotation Yrotation Zrotation
							JOINT head_ee
							{
								OFFSET	0	179.8	-8.7
								CHANNELS 3  Xrotation Yrotation Zrotation
								End Site
								{
									OFFSET	1	0	0
								}
							}
						}
					}
					JOINT left_clavicle
					{
						OFFSET	-43.2	22.4	-70.8
						CHANNELS 3  Xrotation Yrotation Zrotation
						JOINT left_shoulder
						{
							OFFSET	-93.9	-5.79999	48.7
							CHANNELS 3  Xrotation Yrotation Zrotation
							JOINT left_elbow
							{
								OFFSET	-291.4	-30.8	15.2
								CHANNELS 3  Xrotation Yrotation Zrotation
								JOINT left_lowarm_twist
								{
									OFFSET	-110.7	-3.89999	13.6
									CHANNELS 3  Xrotation Yrotation Zrotation
									JOINT left_hand
									{
										OFFSET	-110.7	-3.89999	13.6
										CHANNELS 3  Xrotation Yrotation Zrotation
										JOINT left_ee
										{
											OFFSET	-80.8	-5.10001	12.1
											CHANNELS 3  Xrotation Yrotation Zrotation
											End Site
											{
												OFFSET	1	0	0
											}
										}
									}
								}
							}
						}
					}
					JOINT right_clavicle
					{
						OFFSET	43.2	22.4	-70.8
						CHANNELS 3  Xrotation Yrotation Zrotation
						JOINT right_shoulder
						{
							OFFSET	93.9	-5.79999	48.7
							CHANNELS 3  Xrotation Yrotation Zrotation
							JOINT right_elbow
							{
								OFFSET	291.4	-30.8	15.2
								CHANNELS 3  Xrotation Yrotation Zrotation
								JOINT right_lowarm_twist
								{
									OFFSET	110.7	-3.89999	13.6
									CHANNELS 3  Xrotation Yrotation Zrotation
									JOINT right_hand
									{
										OFFSET	110.7	-3.89999	13.6
										CHANNELS 3  Xrotation Yrotation Zrotation
										JOINT right_ee
										{
											OFFSET	80.8	-5.10001	12.1
											CHANNELS 3  Xrotation Yrotation Zrotation
											End Site
											{
												OFFSET	1	0	0
											}
										}
									}
								}
							}
						}
					}
				}
			}
		}
	}
	JOINT left_hip
	{
		OFFSET	-82.8	-127.5	0.300001
		CHANNELS 3  Xrotation Yrotation Zrotation
		JOINT left_knee
		{
			OFFSET	-28.2	-396.7	2.2
			CHANNELS 3  Xrotation Yrotation Zrotation
			JOINT left_ankle
			{
				OFFSET	-11.7	-411.3	35.4
				CHANNELS 3  Xrotation Yrotation Zrotation
				JOINT left_toes
				{
					OFFSET	0	-60	-88.6
					CHANNELS 3  Xrotation Yrotation Zrotation
					JOINT left_foot_ee
					{
						OFFSET	-22.5	-16.5	-42.2
						CHANNELS 3  Xrotation Yrotation Zrotation
						End Site
						{
							OFFSET	1	0	0
						}
					}
				}
			}
		}
	}
	JOINT right_hip
	{
		OFFSET	82.8	-127.5	0.300001
		CHANNELS 3  Xrotation Yrotation Zrotation
		JOINT right_knee
		{
			OFFSET	28.2	-396.7	2.2
			CHANNELS 3  Xrotation Yrotation Zrotation
			JOINT right_ankle
			{
				OFFSET	11.7	-411.3	35.4
				CHANNELS 3  Xrotation Yrotation Zrotation
				JOINT right_toes
				{
					OFFSET	0	-60	-88.6
					CHANNELS 3  Xrotation Yrotation Zrotation
					JOINT right_foot_ee
					{
						OFFSET	22.5	-16.5	-42.2
						CHANNELS 3  Xrotation Yrotation Zrotation
						End Site
						{
							OFFSET	1	0	0
						}
					}
				}
			}
		}
	}
}
MOTION
Frames: 11
Frame Time: 0.02
3482.07386796 726.178 -1547.56730086 43.0019304433 83.8037517366 -41.2672648524 -1.58238 0.592191 -0.0312228 -1.58258 0.592978 0.00652449 -1.58267 0.574524 0.14693 -1.58221 0.590518 0.0543476 -7.45536 12.2762 -2.57669 -7.45117 24.6999 0.038161 -0.0 0.0 -0.0 1.16999 23.3948 4.31086 -12.0477 6.9037 76.3301 1.54561 -37.4368 0.52374 -22.505 -1.31036 2.54331 -2.16931 28.4852 -0.615462 -0.0 0.0 -0.0 12.7285 10.9351 -25.9363 -3.75169 39.6875 -63.9963 0.225514 6.37441 -0.0125577 -46.3677 3.65239 -4.47958 6.57743 -27.9067 -58.2446 0.0 0.0 0.0 3.68137 15.5112 -10.8566 -34.3128 -0.145138 5.18603 30.8223 9.55027 -3.98272 -10.3258 0.0 0.0 -0.0 0.0 -0.0 -11.436 -4.85096 -3.39342 -0.180836 -0.0074038 -0.0267634 35.8863 18.8549 4.91676 -37.4002 0.0 0.0 0.0 0.0 0.0 
3479.11183494 728.829 -1545.12957793 40.9796943587 84.079634072 -39.6319005555 -1.46625 0.495669 0.0378465 -1.46638 0.492256 0.0693112 -1.46587 0.462162 0.183103 -1.46559 0.48528 0.107813 -8.45877 12.9382 -2.19688 -8.54378 25.7412 0.802313 -0.0 0.0 -0.0 1.0005 23.2908 4.06997 -12.515 8.02757 76.8148 1.42131 -35.1463 0.450153 -20.6603 -1.16626 2.35604 -1.80777 28.4803 1.33063 -0.0 0.0 -0.0 12.8837 13.4001 -26.2725 -0.933652 40.1934 -64.5063 0.255203 7.20529 -0.0160679 -46.7056 3.69085 -4.4996 6.48711 -27.7209 -57.1766 0.0 0.0 0.0 6.49328 18.5183 -11.5084 -34.3472 -0.146839 5.19103 26.5386 5.19288 -3.50788 -10.9327 0.0 0.0 -0.0 0.0 -0.0 -11.4445 -5.09705 -2.76645 1.02978 0.0437725 0.151959 34.8928 19.1175 4.82641 -40.2922 0.0 0.0 0.0 0.0 0.0 
3471.02888902 731.306 -1545.75850885 39.6561080892 84.5411628882 -38.2360584293 -1.41787 0.547559 0.0471306 -1.41803 0.54345 0.0818788 -1.41735 0.509143 0.206922 -1.41701 0.535433 0.123914 -8.25387 13.279 -2.20778 -8.32772 26.372 0.823199 -0.0 0.0 -0.0 1.09508 23.3002 4.20075 -13.67 10.6974 77.1565 1.33246 -33.4256 0.400098 -19.4541 -1.07533 2.23115 -1.64422 28.6381 2.28464 -0.0 0.0 -0.0 13.2697 15.0912 -27.1284 0.602256 40.7844 -64.8228 0.276806 7.80796 -0.0188901 -47.3131 3.76029 -4.53505 6.36189 -27.9876 -55.7137 0.0 0.0 0.0 9.65733 20.0063 -13.0427 -32.8811 -0.0770271 4.97693 23.6386 -0.129193 -3.19452 -11.3906 0.0 0.0 -0.0 0.0 -0.0 -11.8962 -4.34953 -2.82355 2.22881 0.0981777 0.32789 36.1079 19.9922 4.98405 -40.0969 0.0 0.0 0.0 0.0 0.0 
3460.73208804 731.888 -1545.06684294 32.593293848 83.6077479571 -31.0260679095 -1.22882 0.737945 -0.0010748 -1.22912 0.736518 0.0458873 -1.22873 0.705981 0.214841 -1.22805 0.731051 0.100643 -9.11432 13.5713 -2.28607 -9.26783 27.0362 1.03472 -0.0 0.0 -0.0 0.706136 23.6697 3.69888 -14.5074 12.2022 78.1231 1.28773 -32.5326 0.375752 -18.3747 -0.996221 2.1178 -1.43033 28.4474 3.35228 -0.0 0.0 -0.0 13.4905 16.4671 -27.595 2.95402 41.3513 -65.6617 0.320197 9.01313 -0.025237 -47.4175 3.77226 -4.54106 6.33089 -27.6721 -55.3899 0.0 0.0 0.0 12.4858 20.3674 -14.7392 -31.9559 -0.0358047 4.84095 21.5257 -4.32603 -2.9756 -11.9483 0.0 0.0 -0.0 0.0 -0.0 -12.4611 -5.54748 -2.67315 3.39352 0.154547 0.497684 34.7676 20.2881 4.85989 -40.203 0.0 0.0 0.0 0.0 0.0 
3452.18335373 732.364 -1544.03051955 25.0412783908 82.1481735722 -23.0327303889 -1.30284 0.795238 -0.0541854 -1.30319 0.797074 -0.00346927 -1.30351 0.776067 0.181831 -1.30268 0.795043 0.0569757 -7.66705 14.2434 -1.66823 -7.70855 27.7492 1.4341 -0.0 0.0 -0.0 0.969974 24.2407 4.10427 -15.3007 16.0914 78.0509 1.15042 -29.677 0.30479 -18.136 -0.979016 2.09254 -1.47741 28.8438 3.27455 -0.0 0.0 -0.0 13.7585 18.9028 -28.0975 3.94711 41.4499 -65.8139 0.401266 11.2427 -0.0394955 -46.9278 3.71621 -4.51266 6.14933 -27.3143 -53.4436 0.0 0.0 0.0 15.223 21.3807 -14.5259 -27.6783 0.125965 4.20457 20.2172 -7.23661 -2.84593 -12.496 0.0 0.0 -0.0 0.0 -0.0 -12.8644 -5.43533 -2.66515 4.40649 0.206377 0.644418 34.5572 23.2441 4.96801 -40.2327 0.0 0.0 0.0 0.0 0.0 
3445.66184154 732.386 -1543.14354494 23.5239347163 82.1596319295 -21.1539617123 -1.31046 0.493614 -0.18163 -1.31058 0.504171 -0.149851 -1.31205 0.525195 -0.0285166 -1.31168 0.5141 -0.111106 -7.0901 15.4279 -0.74308 -7.09413 29.2453 2.46535 -0.0 0.0 -0.0 1.79844 24.8736 5.25604 -16.3345 17.5035 77.1325 1.06796 -27.8797 0.265088 -18.7566 -1.02397 2.15807 -1.87391 28.8297 1.13937 -0.0 0.0 -0.0 14.6094 24.5038 -29.6181 5.63769 38.5738 -64.9412 0.412656 11.5533 -0.0417465 -42.1187 3.17926 -4.20864 5.8367 -25.302 -50.2738 0.0 0.0 0.0 17.0694 23.9705 -13.7292 -19.8551 0.297335 3.01719 19.7008 -10.0316 -2.81886 -13.6063 0.0 0.0 -0.0 0.0 -0.0 -13.4022 -5.30786 -2.89776 4.87102 0.231014 0.711403 34.0875 23.4753 4.92882 -40.1317 0.0 0.0 0.0 0.0 0.0 
3441.0776973 730.578 -1545.00673023 19.8100212906 81.6530739335 -17.0915342821 -1.27243 0.468533 -0.144846 -1.27254 0.476801 -0.114738 -1.27362 0.49041 -0.00106026 -1.2733 0.484088 -0.0785 -5.71968 15.3004 -1.7917 -5.56498 29.5957 1.01013 -0.0 0.0 -0.0 1.81358 24.8162 5.27312 -16.9363 16.7601 76.7281 1.02836 -26.9945 0.246841 -18.0829 -0.975201 2.0869 -1.78193 28.681 1.56355 -0.0 0.0 -0.0 15.1063 26.7288 -30.5178 7.06439 37.4478 -64.2981 0.452093 12.6235 -0.0500058 -41.6454 3.12782 -4.17631 5.7672 -25.9393 -49.6194 0.0 0.0 0.0 18.6645 24.8076 -13.9415 -16.4371 0.321045 2.49337 17.1242 -11.8345 -2.50708 -14.0387 0.0 0.0 -0.0 0.0 -0.0 -13.1256 -4.67341 -3.28952 5.12882 0.244921 0.748494 33.7965 22.6059 4.85718 -40.1444 0.0 0.0 0.0 0.0 0.0 
3431.78795746 728.714 -1546.09937608 19.3143917257 81.6603524511 -16.5544300474 -1.26582 0.477244 -0.207998 -1.26593 0.489512 -0.177208 -1.26758 0.517253 -0.0589327 -1.26724 0.501454 -0.139886 -5.08528 15.4882 -1.46092 -4.87129 29.621 1.20904 -0.0 0.0 -0.0 1.92712 24.6718 5.41722 -17.4821 17.6842 76.2403 0.988967 -26.1 0.229235 -18.0432 -0.972355 2.08269 -1.83284 28.6737 1.28645 -0.0 0.0 -0.0 15.2256 27.3465 -30.7143 8.40978 36.3651 -64.4767 0.497791 13.8525 -0.0604709 -40.1838 2.97073 -4.07383 5.63432 -25.3129 -48.3403 0.0 0.0 0.0 19.0547 25.8436 -13.1986 -13.6613 0.317291 2.06755 16.3013 -12.5088 -2.40593 -15.093 0.0 0.0 -0.0 0.0 -0.0 -13.7554 -5.18539 -3.43794 4.8701 0.230964 0.711271 34.3438 22.0637 4.89123 -40.112 0.0 0.0 0.0 0.0 0.0 
3402.87459627 724.133 -1536.74610243 19.9255230082 82.455326785 -17.7027400401 -1.51004 0.354062 -0.124573 -1.5101 0.361271 -0.10179 -1.51083 0.375087 -0.0136996 -1.51064 0.368216 -0.0727665 -4.68005 16.0953 -1.06839 -4.41829 30.3954 1.60451 -0.0 0.0 -0.0 3.05833 24.8731 6.93838 -18.5717 18.8132 74.5717 0.809141 -21.842 0.156126 -18.4302 -1.00024 2.12366 -2.00214 27.8658 -0.0136 -0.0 0.0 -0.0 15.4043 26.98 -31.1921 9.32637 36.398 -64.4391 0.615833 16.9653 -0.0918468 -39.3839 2.88588 -4.01606 5.35982 -25.7239 -45.8772 0.0 0.0 0.0 19.9753 24.879 -12.7551 -8.5256 0.256018 1.28217 14.4209 -15.6444 -2.1938 -15.3352 0.0 0.0 -0.0 0.0 -0.0 -14.8303 -5.3098 -2.1869 4.98287 0.237027 0.727503 34.9929 21.7376 4.9448 -40.3029 0.0 0.0 0.0 0.0 0.0 
3388.40074321 721.043 -1533.49408516 22.6710010177 81.9170718593 -20.6191827365 -1.55945 0.646932 -0.169543 -1.55967 0.656409 -0.128032 -1.56139 0.668059 0.0310091 -1.56077 0.664572 -0.0748922 -5.14958 16.6895 0.110298 -4.95064 30.6943 3.04158 -0.0 0.0 -0.0 3.40512 24.9392 7.40389 -19.8727 19.7852 74.1969 0.802334 -21.6754 0.153603 -19.2276 -1.05855 2.20748 -2.23421 26.5424 -1.93623 -0.0 0.0 -0.0 15.1834 26.2404 -30.7678 9.39714 36.0439 -64.4757 0.699506 19.112 -0.117761 -34.6011 2.39614 -3.64657 5.34187 -23.3255 -45.5275 0.0 0.0 0.0 20.2988 25.3384 -13.03 -7.28122 0.230594 1.09291 11.2551 -18.0193 -1.76909 -15.4865 0.0 0.0 -0.0 0.0 -0.0 -14.2842 -5.35936 -2.16221 -0.307413 -0.0125362 -0.0455099 36.1748 18.7117 4.93994 -40.1443 0.0 0.0 0.0 0.0 0.0 
3372.39559967 715.595 -1534.60659785 26.7883218883 82.326687232 -24.5320448994 -1.63592 0.500008 -0.180288 -1.63605 0.510466 -0.148105 -1.63753 0.531048 -0.0223384 -1.63715 0.520855 -0.105929 -5.17074 17.1536 0.274835 -4.96541 31.4369 3.2968 -0.0 0.0 -0.0 3.47757 24.9746 7.50119 -19.77 20.6306 72.8817 0.757625 -20.5713 0.13749 -17.859 -0.959181 2.06313 -1.96334 27.9076 0.217246 -0.0 0.0 -0.0 14.911 25.6598 -30.1951 10.7048 35.7232 -65.2959 0.828144 22.3052 -0.163267 -33.3061 2.26902 -3.53964 5.25017 -21.3414 -44.4704 0.0 0.0 0.0 20.682 24.2435 -12.9378 -5.85967 0.196526 0.877423 10.2655 -17.9804 -1.61962 -15.4973 0.0 0.0 -0.0 0.0 -0.0 -16.0627 -4.38214 -1.41206 -1.84047 -0.0713936 -0.273414 38.1949 21.2308 5.2409 -39.5118 0.0 0.0 0.0 0.0 0.0 
